<?xml version="1.0" encoding="UTF-8"?>
<svg width="50px" height="50px" viewBox="0 0 50 50" version="1.1" xmlns="http://www.w3.org/2000/svg" xmlns:xlink="http://www.w3.org/1999/xlink">
    <title>01 Logos / 01 Orange Master logo</title>
    <g id="01-Logos-/-01-Orange-Master-logo" stroke="none" stroke-width="1" fill="none" fill-rule="evenodd">
        <g>
            <rect id="Rectangle" fill="#FF7900" x="0" y="0" width="50" height="50"></rect>
            <path d="M45.0264085,36.4066901 L44.3080986,36.4066901 L44.3080986,38.3961268 L43.9278169,38.3961268 L43.9278169,36.4066901 L43.209507,36.4066901 L43.209507,36.1003521 L45.0264085,36.1003521 L45.0264085,36.4066901 Z M48.0193662,38.3961268 L47.6408451,38.3961268 L47.6408451,36.4788732 L47.6285211,36.4788732 L46.8767606,38.3961268 L46.6373239,38.3961268 L45.8855634,36.4788732 L45.875,36.4788732 L45.875,38.3961268 L45.4964789,38.3961268 L45.4964789,36.1073944 L46.0809859,36.1073944 L46.7658451,37.8503521 L47.4401408,36.1073944 L48.0193662,36.1073944 L48.0193662,38.3961268 Z" id="Shape" fill="#FFFFFF" fill-rule="nonzero"></path>
            <path d="M41.1426056,45.806338 C39.0950704,45.806338 37.8732394,44.4911972 37.8732394,42.2059859 C37.8732394,39.9207746 39.1056338,38.5774648 41.1126761,38.5774648 C43.1197183,38.5774648 44.3080986,39.8538732 44.3080986,42.1126761 C44.3080986,42.2323944 44.2940141,42.3521127 44.2940141,42.4647887 L39.6690141,42.4647887 C39.6830986,43.7799296 40.2288732,44.443662 41.3045775,44.443662 C41.9964789,44.443662 42.4524648,44.165493 42.8802817,43.5633803 L44.2200704,44.306338 C43.6302817,45.2887324 42.5704225,45.806338 41.1426056,45.806338 Z M42.5123239,41.2887324 C42.5123239,40.3591549 41.9841549,39.8133803 41.1126761,39.8133803 C40.2887324,39.8133803 39.7728873,40.3415493 39.7042254,41.2887324 L42.5123239,41.2887324 Z" id="Shape" fill="#FFFFFF" fill-rule="nonzero"></path>
            <path d="M33.5105634,44.1901817 C34.8978873,44.1795775 35.0140845,42.7693662 35.0140845,41.846831 C35.0140845,40.7623239 34.4859155,39.8785211 33.4982394,39.8785211 C32.8415493,39.8785211 32.1091549,40.3573944 32.1091549,41.9225352 C32.1091549,42.7816901 32.1690141,44.1989437 33.5105634,44.1901817 Z M36.7711268,38.7112676 L36.7711268,45.2869718 C36.7711268,46.4489437 36.6830986,48.3591549 33.3714789,48.3802817 C32.0070423,48.3802817 30.7411972,47.8433099 30.4876761,46.6496479 L32.2922535,46.3591549 C32.3679577,46.7007042 32.5757042,47.0422535 33.5985915,47.0422535 C34.5475352,47.0422535 35.0070423,46.5880282 35.0070423,45.5017606 L35.0070423,44.693662 L34.9823944,44.6690141 C34.6919014,45.1866197 34.25,45.6795775 33.1883803,45.6795775 C31.5704225,45.6795775 30.2940141,44.556338 30.2940141,42.2077465 C30.2940141,39.8855634 31.6091549,38.5862676 33.0862676,38.584507 C34.471831,38.584507 34.9859155,39.2130282 35.1038732,39.5457746 L35.0827465,39.5457746 L35.2323944,38.7147887 L36.7711268,38.7112676 Z" id="Shape" fill="#FFFFFF" fill-rule="nonzero"></path>
            <path d="M22.806338,38.9207746 L24.318662,38.7112676 L24.4841549,39.5352113 C25.3380282,38.9102113 26.0158451,38.5774648 26.8697183,38.5774648 C28.2992958,38.5774648 29.0352113,39.3362676 29.0352113,40.8380282 L29.0352113,45.6742958 L27.209507,45.6742958 L27.209507,41.1566901 C27.209507,40.306338 26.9876761,39.9242958 26.3292254,39.9242958 C25.7834507,39.9242958 25.2394366,40.1760563 24.6197183,40.6954225 L24.6197183,45.6778169 L22.806338,45.6778169 L22.806338,38.9207746 Z" id="Path" fill="#FFFFFF" fill-rule="nonzero"></path>
            <path d="M19.5774648,45.0704225 C18.9003126,45.5232758 18.1033501,45.7635906 17.2887324,45.7605916 C15.9929577,45.7605916 15.2271127,44.8978873 15.2271127,43.7429577 C15.2271127,42.1883803 16.6566901,41.3644366 19.6021127,41.0316901 L19.6021127,40.6461268 C19.6021127,40.1408451 19.2183099,39.8485915 18.5105634,39.8485915 C17.8518087,39.8300197 17.2235608,40.1261657 16.818662,40.6461268 L15.5862676,39.9419014 C16.2341549,39.0369718 17.2212441,38.5850939 18.5475352,38.5862653 C20.3573944,38.5862653 21.3644366,39.3697183 21.3644366,40.6461268 C21.3644366,40.6461268 21.3644366,45.6672535 21.3644366,45.681338 L19.7447183,45.681338 L19.5774648,45.0704225 Z M17.0158451,43.6091549 C17.0158451,44.0757042 17.3098592,44.5123239 17.8397887,44.5123239 C18.415493,44.5123239 18.9735915,44.2728873 19.5334507,43.7799296 L19.5334507,42.1355634 C17.8257042,42.3521127 17.0158451,42.790493 17.0158451,43.6126761 L17.0158451,43.6091549 Z" id="Shape" fill="#FFFFFF" fill-rule="nonzero"></path>
            <path d="M10.8327465,38.7323944 L12.5704225,38.7323944 L12.5704225,39.5492958 C13.0482548,38.9786488 13.7410278,38.6313063 14.4841549,38.5897887 C14.5629944,38.5877462 14.6418729,38.5918668 14.7200704,38.6021127 L14.7200704,40.3169014 L14.6320423,40.3169014 C13.8362676,40.3169014 12.9665493,40.4401408 12.6954225,41.0580986 L12.6954225,45.6778169 L10.8327465,45.6778169 L10.8327465,38.7323944 Z" id="Path" fill="#FFFFFF" fill-rule="nonzero"></path>
            <path d="M6.14260563,45.8820423 C4.33450704,45.8820423 2.70598592,44.7306338 2.70598592,42.2165493 C2.70598592,39.7024648 4.33450704,38.556338 6.14260563,38.556338 C7.95070423,38.556338 9.57922535,39.709507 9.57922535,42.221831 C9.57922535,44.7341549 7.94894366,45.8820423 6.14260563,45.8820423 Z M6.14260563,40.096831 C4.77816901,40.096831 4.52464789,41.3292254 4.52464789,42.209507 C4.52464789,43.0897887 4.77816901,44.3309859 6.14260563,44.3309859 C7.50704225,44.3309859 7.76056338,43.0985915 7.76056338,42.209507 C7.76056338,41.3204225 7.50704225,40.096831 6.14260563,40.096831 Z" id="Shape" fill="#FFFFFF" fill-rule="nonzero"></path>
        </g>
    </g>
</svg>